<?xml version="1.0" encoding="UTF-8" standalone="no"?>
<!-- Generator: Adobe Illustrator 12.0.0, SVG Export Plug-In . SVG Version: 6.00 Build 51448)  -->
<svg
   xmlns:dc="http://purl.org/dc/elements/1.1/"
   xmlns:cc="http://web.resource.org/cc/"
   xmlns:rdf="http://www.w3.org/1999/02/22-rdf-syntax-ns#"
   xmlns:svg="http://www.w3.org/2000/svg"
   xmlns="http://www.w3.org/2000/svg"
   xmlns:xlink="http://www.w3.org/1999/xlink"
   xmlns:sodipodi="http://sodipodi.sourceforge.net/DTD/sodipodi-0.dtd"
   xmlns:inkscape="http://www.inkscape.org/namespaces/inkscape"
   version="1.0"
   id="Berlin_37_"
   width="4564.5547"
   height="3672.667"
   viewBox="0 0 5048.233 3701.373"
   overflow="visible"
   enable-background="new 0 0 5048.233 3701.373"
   xml:space="preserve"
   sodipodi:version="0.32"
   inkscape:version="0.44"
   sodipodi:docname="berlin.svg"
   sodipodi:docbase="/data/home/thomas/code/freimap"
   inkscape:export-filename="/data/home/thomas/code/freimap/Berlin.png"
   inkscape:export-xdpi="60"
   inkscape:export-ydpi="60"><metadata
   id="metadata537"><rdf:RDF><cc:Work
       rdf:about=""><dc:format>image/svg+xml</dc:format><dc:type
         rdf:resource="http://purl.org/dc/dcmitype/StillImage" /></cc:Work></rdf:RDF></metadata><sodipodi:namedview
   inkscape:window-height="578"
   inkscape:window-width="850"
   inkscape:pageshadow="2"
   inkscape:pageopacity="0.0"
   guidetolerance="10.0"
   gridtolerance="10.0"
   objecttolerance="10.0"
   borderopacity="1.0"
   bordercolor="#666666"
   pagecolor="#ffffff"
   id="base"
   inkscape:zoom="0.07221276"
   inkscape:cx="1760.0325"
   inkscape:cy="2478.7411"
   inkscape:window-x="115"
   inkscape:window-y="226"
   inkscape:current-layer="Berlin_37_" />
<symbol
   id="Flughafen_2"
   viewBox="-7.227 -7.227 14.453 14.453"
   transform="translate(-286.5206,-2.488003)">
	<g
   id="g4">
		<polygon
   points="-7.227,-7.227 7.227,-7.227 7.227,7.227 -7.227,7.227 -7.227,-7.227 "
   id="polygon6"
   style="fill:none" />
		<g
   id="g8">
			<path
   d="M 7.227,-4.95 C 7.227,-6.207 6.206,-7.226 4.95,-7.226 L -4.948,-7.226 C -6.204,-7.226 -7.225,-6.206 -7.225,-4.95 L -7.225,4.944 C -7.225,6.205 -6.204,7.227 -4.948,7.227 L 4.95,7.227 C 6.206,7.227 7.227,6.205 7.227,4.944 L 7.227,-4.95 z "
   id="path10" />
			<path
   d="M -0.902,2.353 C -0.902,2.353 -1.004,6.018 0.018,6.018 C 1.041,6.018 0.983,2.297 0.983,2.297 L 5.57,-1.586 L 5.765,-2.801 L 0.92,0.088 L 0.554,-4.065 L 1.908,-5.591 L 1.945,-6.056 L 0.057,-5.602 L -1.906,-6.057 L -1.863,-5.592 L -0.385,-4.066 L -0.876,0.087 L -5.742,-2.51 L -5.529,-1.586 L -0.902,2.353 z "
   id="path12"
   style="fill:white" />
		</g>
	</g>
</symbol>
<defs
   id="defs14">
	<path
   id="Schnittmaske"
   d="M 1845.815,3094.159 L 1779.815,3036.659 L 1779.815,2992.159 L 1664.315,3070.659 L 1609.315,3107.659 L 1574.815,3140.159 L 1556.815,3114.159 L 1454.815,2979.159 L 1461.815,2973.659 L 1464.315,2966.159 L 1459.815,2959.659 L 1414.315,3005.659 L 1366.315,3055.659 L 1337.815,3082.159 L 1308.315,3099.159 L 1279.815,3104.659 L 1262.815,3104.659 L 1244.815,3101.659 L 1223.315,3090.159 L 1207.815,3085.659 L 1185.315,3085.659 L 1146.315,3105.159 L 1145.815,3098.159 C 1145.815,3098.159 1145.315,3083.659 1145.315,3081.659 C 1145.315,3079.659 1139.815,3066.159 1139.815,3066.159 L 1138.815,3048.159 C 1138.815,3048.159 1136.815,3022.159 1136.815,3020.659 C 1136.815,3019.159 1129.815,2991.659 1129.815,2991.659 L 1121.815,2966.159 L 1120.815,2947.659 L 1110.315,2926.159 L 1075.315,2932.159 C 1075.315,2932.159 1041.815,2933.159 1040.315,2933.159 C 1038.815,2933.159 1025.315,2938.659 1025.315,2938.659 L 967.315,2934.159 L 940.315,2948.659 L 910.815,2963.659 L 867.815,2988.659 L 820.315,3002.659 L 794.315,3009.159 L 777.815,3010.159 L 752.315,3028.659 L 533.315,3160.159 L 533.315,3181.159 L 531.315,3204.159 L 524.815,3237.159 L 532.315,3236.159 L 565.315,3229.159 L 586.815,3224.159 L 617.815,3214.659 L 620.815,3237.659 L 599.315,3254.159 L 569.315,3257.659 L 529.815,3263.159 L 501.315,3254.159 L 479.815,3251.659 L 450.315,3250.159 L 427.315,3241.159 L 424.315,3233.659 L 402.315,3249.159 L 378.815,3272.659 L 356.315,3298.659 L 346.815,3313.159 C 346.815,3313.159 356.815,3324.159 359.315,3325.159 C 361.815,3326.159 367.315,3336.159 367.315,3336.159 L 364.815,3347.659 L 350.815,3348.659 L 330.315,3336.159 C 330.315,3336.159 319.315,3327.159 319.315,3325.659 C 319.315,3324.159 322.815,3301.659 322.815,3301.659 L 328.315,3296.159 L 348.815,3294.159 L 360.315,3281.659 C 360.315,3281.659 378.315,3263.659 378.815,3262.159 C 379.315,3260.659 395.315,3244.659 395.315,3244.659 L 377.815,3245.659 L 375.815,3241.659 L 371.315,3233.659 L 392.815,3225.659 L 360.315,3213.159 L 355.815,3216.159 L 349.815,3225.659 L 339.815,3235.659 L 325.815,3241.659 L 312.315,3247.659 C 312.315,3247.659 300.315,3240.659 298.815,3240.159 C 297.315,3239.659 284.815,3230.659 284.815,3230.659 L 271.815,3211.659 L 255.815,3192.659 L 249.315,3186.659 L 237.815,3181.659 L 217.815,3175.659 L 204.315,3162.659 L 202.315,3152.159 L 191.815,3139.659 L 184.815,3134.159 L 186.315,3131.159 L 193.315,3123.659 L 186.315,3118.659 L 172.815,3118.659 L 174.815,3110.659 L 179.815,3102.159 L 186.815,3093.159 L 192.815,3080.159 L 192.315,3072.159 L 172.315,3064.659 L 169.423,3073.733 L 172.423,3093.233 L 167.923,3103.733 L 154.423,3102.233 L 133.424,3102.233 L 133.424,3087.233 L 130.424,3069.233 L 124.424,3066.235 L 101.925,3076.733 L 104.925,3087.233 L 118.425,3099.233 L 118.425,3108.231 L 103.426,3114.231 L 94.426,3105.233 L 74.927,3100.733 C 74.927,3100.733 62.927,3097.733 58.427,3093.233 C 53.927,3088.733 59.927,3073.733 59.927,3073.733 L 53.927,3055.735 L 50.927,3033.235 L 38.927,3007.737 L 47.927,3004.737 L 74.926,2983.739 L 97.425,2965.739 L 113.925,2938.741 C 113.925,2938.741 121.425,2943.241 125.924,2943.241 C 130.423,2943.241 148.423,2947.739 148.423,2947.739 L 157.423,2931.241 L 182.922,2905.743 L 202.421,2887.743 L 196.421,2857.745 L 199.421,2848.745 L 218.92,2824.747 L 245.919,2802.247 L 269.918,2791.747 L 269.918,2778.249 L 275.918,2766.249 L 256.418,2749.751 L 235.419,2716.751 L 226.42,2712.251 L 212.92,2709.251 L 200.921,2694.253 L 206.921,2685.253 L 190.422,2668.753 L 169.423,2653.755 L 172.423,2641.755 L 179.815,2619.659 L 182.315,2586.659 L 179.815,2564.159 L 165.315,2552.159 L 170.315,2526.659 L 166.815,2505.159 L 162.815,2490.659 L 184.815,2447.659 C 184.815,2447.659 195.815,2419.159 196.815,2417.659 C 197.815,2416.159 205.815,2392.159 205.815,2390.659 C 205.815,2389.159 205.815,2376.159 205.815,2376.159 L 205.315,2355.659 L 263.315,2337.159 L 307.315,2275.159 L 355.315,2206.159 L 411.815,2124.159 L 454.315,2068.659 L 496.315,2016.659 C 496.315,2016.659 509.315,2004.159 509.315,2002.659 C 509.315,2001.159 521.815,1985.159 521.815,1985.159 L 529.315,1982.659 L 466.315,1950.159 L 447.315,1942.159 L 412.315,1920.659 L 376.815,1902.659 L 364.315,1901.659 L 358.815,1886.659 L 347.315,1877.659 L 328.815,1881.159 L 283.815,1895.659 C 283.815,1895.659 243.815,1907.659 241.815,1907.659 C 239.815,1907.659 211.315,1911.659 211.315,1911.659 L 175.815,1914.659 L 179.815,1880.659 L 180.315,1854.659 L 180.315,1808.159 L 182.315,1766.159 L 185.315,1741.159 L 199.315,1702.659 L 204.315,1679.659 L 207.315,1640.159 L 211.315,1618.159 L 216.815,1573.658 L 230.315,1515.158 L 238.315,1475.658 L 251.815,1485.658 C 251.815,1485.658 262.815,1499.658 264.315,1500.158 C 265.815,1500.658 284.815,1507.658 284.815,1507.658 L 308.315,1512.158 C 308.315,1512.158 326.315,1513.658 327.815,1513.658 C 329.315,1513.658 335.315,1510.658 335.315,1510.658 L 341.815,1508.658 L 344.815,1500.158 L 344.815,1493.158 L 351.315,1484.158 L 351.315,1473.158 L 346.815,1440.158 L 337.815,1418.158 L 347.815,1404.158 L 349.815,1367.158 L 361.815,1345.158 L 368.815,1315.158 L 378.815,1302.158 L 378.815,1280.158 L 382.815,1272.158 L 381.815,1228.158 C 381.815,1228.158 369.815,1194.158 365.815,1188.158 C 361.815,1182.158 355.815,1168.158 355.815,1168.158 L 350.815,1162.158 L 310.815,1183.158 L 281.815,1196.158 L 267.815,1196.158 C 267.815,1196.158 243.815,1208.158 239.815,1208.158 C 235.815,1208.158 228.815,1194.158 228.815,1194.158 L 221.815,1173.158 L 209.815,1172.158 L 213.815,1142.158 L 205.815,1138.158 L 206.815,1128.158 L 212.815,1123.158 L 228.815,1131.158 L 258.815,1120.158 L 268.815,1103.158 L 307.815,1095.158 L 339.815,1074.158 L 368.815,1029.158 C 368.815,1029.158 382.815,1003.158 386.815,1001.158 C 390.815,999.158 418.815,989.158 418.815,989.158 L 444.815,985.158 L 463.815,1002.158 L 472.815,1005.158 L 485.815,1005.158 L 502.815,1018.158 L 514.815,1023.158 L 532.815,1025.158 L 548.815,1028.158 L 560.815,1032.158 L 579.815,1032.158 L 591.815,1046.158 L 608.815,1051.158 L 624.815,1064.158 L 644.815,1074.158 L 673.815,1076.158 L 706.815,1090.158 L 735.815,1104.158 L 741.815,1085.158 L 780.815,1084.158 L 805.815,1092.158 L 814.815,1058.158 L 814.815,1040.158 L 800.815,1020.158 L 778.815,1003.158 L 751.815,983.158 L 713.482,937.158 L 690.815,906.491 L 688.148,883.824 L 702.815,871.824 L 720.815,858.491 L 736.815,820.491 L 752.148,786.491 L 762.815,761.158 L 772.148,739.158 L 786.148,723.158 L 796.815,689.825 L 804.148,663.158 L 804.815,636.491 L 841.482,632.491 L 842.815,638.491 L 871.482,639.158 L 896.148,635.158 L 915.482,635.158 C 915.482,635.158 934.816,631.158 937.482,631.158 C 940.148,631.158 950.148,625.158 952.815,625.158 C 955.482,625.158 968.815,633.825 970.815,633.825 C 972.815,633.825 983.482,635.825 983.482,635.825 L 994.148,631.825 L 1023.482,632.492 L 1049.482,628.492 C 1049.482,628.492 1071.482,624.492 1076.815,625.825 C 1082.148,627.158 1103.482,633.825 1101.482,633.158 C 1099.482,632.491 1100.148,571.158 1100.148,571.158 L 1097.482,541.825 L 1090.148,521.158 L 1078.815,499.158 L 1077.482,479.825 C 1077.482,479.825 1113.481,488.492 1116.148,488.492 C 1118.815,488.492 1136.815,486.492 1136.815,486.492 L 1152.815,480.492 L 1175.482,481.825 C 1175.482,481.825 1203.481,473.825 1206.148,473.825 C 1208.815,473.825 1222.148,469.158 1222.148,469.158 L 1224.815,341.825 L 1200.815,341.825 L 1205.482,247.825 L 1245.482,257.825 L 1274.148,260.492 L 1312.815,259.159 L 1338.815,255.159 L 1370.815,251.826 L 1390.148,273.826 L 1328.148,322.493 L 1386.815,426.493 L 1392.815,427.826 C 1392.815,427.826 1387.482,462.493 1387.482,464.493 C 1387.482,466.493 1380.148,476.493 1380.148,476.493 L 1381.482,493.16 L 1379.482,513.827 L 1398.148,552.494 L 1403.482,573.161 L 1405.482,583.161 L 1360.148,610.494 L 1402.148,604.494 L 1426.815,599.827 C 1426.815,599.827 1459.482,613.16 1463.482,613.16 C 1467.482,613.16 1496.148,614.493 1496.148,614.493 L 1554.148,631.826 L 1594.148,650.493 L 1614.148,642.493 L 1643.482,635.826 L 1691.482,631.159 L 1695.482,642.492 L 1720.148,631.825 L 1736.148,634.492 L 1752.148,624.492 L 1768.148,615.159 L 1799.482,603.826 L 1808.815,601.159 L 1820.815,584.492 L 1828.815,582.492 L 1848.148,571.159 L 1862.148,553.826 L 1853.482,537.826 L 1872.815,502.493 L 1875.482,507.826 L 1884.815,498.493 L 1895.482,492.493 L 1892.815,487.16 L 1886.148,484.493 L 1899.482,475.826 L 1914.148,476.493 L 1930.148,468.493 L 1936.815,459.16 L 1940.815,437.827 L 1939.482,414.494 L 1954.148,395.161 L 1962.148,360.494 L 1964.815,351.161 L 1980.148,351.161 L 1982.148,345.161 L 1986.815,337.828 L 2026.148,373.828 L 2050.815,387.828 L 2062.815,399.828 C 2062.815,399.828 2090.148,385.161 2092.148,387.828 C 2094.148,390.495 2100.148,397.828 2100.148,397.828 L 2110.148,397.828 L 2110.148,415.161 C 2110.148,415.161 2132.815,439.161 2134.815,440.494 C 2136.815,441.827 2180.148,467.827 2180.148,467.827 L 2206.815,445.16 L 2231.482,447.827 L 2243.482,435.827 L 2236.815,405.827 L 2237.482,365.827 L 2278.815,352.494 L 2280.815,311.161 L 2300.148,304.494 C 2300.148,304.494 2322.148,299.827 2324.148,299.827 C 2326.148,299.827 2355.482,298.494 2355.482,298.494 L 2356.815,308.494 C 2356.815,308.494 2406.816,313.827 2408.15,311.827 C 2409.484,309.827 2425.484,307.16 2425.484,304.494 C 2425.484,301.827 2429.484,287.827 2429.484,287.827 L 2444.15,279.827 L 2454.817,272.494 L 2474.817,269.161 L 2483.484,253.161 L 2500.15,244.494 L 2497.484,222.494 L 2488.817,217.161 L 2420.15,212.494 C 2420.15,212.494 2364.818,166.494 2359.484,166.494 C 2354.15,166.494 2330.15,155.827 2330.15,155.827 L 2391.484,83.16 L 2434.817,97.16 L 2459.484,57.16 L 2466.817,59.16 L 2494.15,15.827 L 2504.15,22.494 L 2523.484,5.827 L 2529.484,13.827 C 2529.484,13.827 2500.15,71.827 2500.817,73.827 C 2501.484,75.827 2508.15,94.494 2508.15,94.494 L 2586.817,50.494 L 2572.15,185.827 L 2615.483,229.827 L 2699.483,275.16 L 2718.15,281.16 L 2769.483,323.827 L 2812.15,303.827 L 2823.483,325.16 L 2836.817,325.827 L 2832.15,406.494 L 2813.483,495.161 L 2736.15,545.828 L 2736.817,611.828 L 2727.483,617.828 L 2695.483,711.828 L 2687.483,781.161 L 2703.483,776.494 L 2776.817,917.827 L 2875.483,903.827 L 2899.483,907.827 L 2934.817,915.827 L 2982.15,930.494 L 3041.483,946.494 L 3040.817,953.161 L 3079.483,973.161 L 3114.817,1001.161 L 3147.483,1026.494 L 3168.817,1052.494 L 3186.817,1079.161 L 3200.15,1107.828 L 3240.816,1091.828 L 3254.816,1101.828 L 3262.15,1122.495 L 3284.15,1121.162 L 3300.15,1161.162 L 3301.483,1186.495 L 3310.15,1207.162 L 3312.15,1227.829 L 3315.483,1247.829 L 3328.816,1269.162 L 3342.15,1289.162 L 3338.816,1312.495 L 3338.816,1333.828 L 3335.483,1356.495 L 3528.149,1402.495 L 3585.483,1409.162 L 3624.816,1410.495 L 3683.483,1419.162 L 3687.483,1431.829 L 3665.483,1468.496 L 3649.483,1466.496 C 3649.483,1466.496 3646.815,1472.496 3644.149,1472.496 C 3641.483,1472.496 3634.149,1469.163 3634.149,1469.163 C 3634.149,1469.163 3626.816,1472.496 3624.816,1472.496 C 3622.816,1472.496 3604.149,1470.496 3604.149,1470.496 L 3613.483,1510.496 L 3608.816,1516.496 L 3617.483,1555.829 L 3642.149,1553.162 L 3692.816,1546.495 L 3744.816,1554.495 L 3779.482,1552.495 L 3828.149,1546.495 L 3841.482,1589.162 L 3810.816,1618.494 L 3785.482,1639.162 L 3760.816,1659.828 L 3734.149,1685.828 L 3705.482,1719.828 L 3678.816,1765.162 L 3666.816,1800.494 L 3657.482,1833.162 L 3649.482,1875.828 L 3642.816,1913.162 L 3638.149,1944.494 L 3630.149,1956.494 L 3667.482,1968.494 L 3642.149,2012.494 L 3579.482,2109.828 L 3574.816,2167.162 L 3591.482,2176.494 C 3591.482,2176.494 3561.482,2221.828 3563.482,2221.828 C 3565.482,2221.828 3588.816,2229.162 3588.816,2229.162 L 3602.149,2214.494 L 3630.816,2223.828 L 3631.482,2245.162 L 3634.816,2245.828 L 3634.149,2266.494 L 3642.816,2267.162 L 3644.816,2262.494 L 3640.816,2241.828 L 3654.816,2239.162 L 3653.482,2187.162 L 3674.816,2186.494 C 3674.816,2186.494 3690.149,2169.828 3692.149,2168.494 C 3694.149,2167.162 3722.149,2155.828 3722.149,2155.828 L 3745.482,2141.162 C 3745.482,2141.162 3770.15,2115.162 3772.816,2115.162 C 3775.482,2115.162 3802.149,2118.494 3802.149,2118.494 L 3836.149,2134.494 L 3853.482,2135.828 L 3879.482,2153.828 L 3902.149,2166.494 C 3902.149,2166.494 3913.482,2167.162 3917.482,2167.162 C 3921.482,2167.162 3940.149,2160.494 3940.149,2160.494 L 3959.482,2172.494 L 3991.482,2195.162 L 4022.815,2211.828 L 4035.482,2233.162 C 4035.482,2233.162 4052.815,2244.494 4054.815,2245.162 C 4056.815,2245.828 4075.482,2250.494 4075.482,2250.494 L 4118.148,2255.162 L 4137.482,2258.494 C 4137.482,2258.494 4150.815,2291.828 4150.815,2293.828 C 4150.815,2295.828 4152.815,2317.828 4152.815,2317.828 L 4163.482,2335.828 L 4162.815,2350.494 L 4162.815,2360.494 L 4207.482,2362.494 L 4212.148,2344.494 L 4211.482,2323.828 L 4207.482,2305.828 L 4191.482,2302.494 L 4183.482,2255.162 L 4169.482,2233.828 L 4161.482,2213.828 L 4173.482,2214.494 L 4197.482,2235.828 L 4228.815,2255.828 C 4228.815,2255.828 4250.815,2268.494 4252.815,2268.494 C 4254.815,2268.494 4270.148,2268.494 4270.148,2268.494 L 4293.483,2297.828 L 4311.483,2333.828 C 4311.483,2333.828 4334.149,2356.494 4336.149,2356.494 C 4338.149,2356.494 4358.149,2379.162 4358.149,2379.162 C 4358.149,2379.162 4370.815,2394.494 4374.149,2395.162 C 4377.483,2395.828 4406.816,2396.494 4406.816,2396.494 L 4412.149,2391.828 L 4418.816,2393.162 L 4420.816,2399.162 C 4420.816,2399.162 4470.149,2409.162 4472.816,2409.162 C 4475.483,2409.162 4482.149,2403.162 4482.149,2403.162 C 4482.149,2403.162 4524.816,2417.828 4526.816,2417.828 C 4528.816,2417.828 4554.149,2431.828 4554.149,2431.828 L 4558.149,2439.828 L 4564.816,2435.828 L 4553.483,2467.162 L 4574.149,2470.494 L 4566.149,2517.828 L 4603.482,2522.494 L 4592.816,2541.828 L 4554.816,2541.162 L 4563.482,2484.494 L 4527.482,2491.162 L 4486.149,2528.494 L 4481.482,2583.828 L 4454.149,2585.828 L 4449.482,2587.828 L 4421.482,2587.828 L 4396.149,2578.494 L 4368.816,2561.828 L 4346.149,2545.828 L 4339.482,2539.828 L 4340.149,2553.162 L 4360.816,2569.828 L 4383.482,2582.494 L 4400.816,2587.162 L 4419.482,2591.162 L 4440.149,2592.494 L 4460.149,2597.162 L 4458.816,2632.494 L 4476.149,2640.494 L 4472.149,2656.494 L 4446.816,2660.494 L 4410.149,2731.828 L 4412.149,2745.162 L 4408.149,2757.828 L 4403.482,2776.494 L 4411.482,2791.828 L 4422.816,2807.162 L 4436.149,2825.162 L 4434.149,2833.162 L 4456.149,2844.494 L 4464.816,2857.828 L 4468.149,2875.162 L 4451.482,2887.828 L 4445.482,2913.828 L 4444.816,2930.494 L 4418.816,2957.828 L 4411.482,2955.828 L 4405.482,2957.162 L 4399.482,2957.162 L 4387.482,2963.828 L 4376.149,2975.162 L 4358.149,2978.494 L 4350.149,2973.828 L 4336.816,2974.494 L 4328.816,2966.494 L 4312.816,2977.162 L 4300.816,2989.828 L 4290.149,2996.494 L 4287.482,3005.828 L 4278.816,3013.162 L 4266.816,3021.162 L 4256.149,3027.162 L 4246.816,3037.162 L 4238.149,3037.828 L 4216.816,3071.828 L 4214.816,3060.494 L 4206.816,3059.162 L 4204.149,3078.494 L 4190.149,3095.162 L 4179.482,3111.162 L 4167.482,3123.828 L 4156.816,3135.162 L 4144.816,3135.162 L 4138.149,3138.494 L 4132.816,3152.494 L 4142.816,3163.162 L 4153.482,3159.828 L 4191.482,3181.828 L 4222.816,3176.494 L 4210.816,3217.828 L 4228.816,3218.494 L 4233.482,3221.828 L 4232.816,3233.162 L 4224.816,3250.494 L 4216.149,3271.828 L 4202.816,3297.828 L 4188.149,3316.494 L 4192.149,3328.494 C 4192.149,3328.494 4180.149,3330.494 4182.149,3331.162 C 4184.149,3331.828 4186.149,3337.162 4186.149,3337.162 L 4175.482,3333.162 L 4165.482,3337.162 L 4155.482,3337.828 L 4132.816,3323.162 L 4117.482,3316.494 L 4095.482,3324.494 L 4066.149,3344.494 L 4046.149,3349.828 L 4038.149,3369.828 L 4034.816,3376.494 L 4026.816,3381.162 L 4018.149,3399.828 L 4014.816,3438.494 L 4016.149,3455.162 C 4016.149,3455.162 4000.816,3457.162 4000.816,3459.162 C 4000.816,3461.162 3996.816,3472.494 3996.816,3472.494 L 3993.482,3488.494 L 3987.482,3501.828 L 3972.149,3509.162 L 3971.482,3522.494 L 3958.149,3528.494 L 3957.482,3547.828 L 3953.482,3563.828 L 3954.816,3577.162 L 3946.816,3586.494 L 3939.482,3597.828 L 3928.149,3619.162 L 3927.482,3636.494 C 3927.482,3636.494 3928.816,3659.162 3928.816,3661.828 C 3928.816,3664.494 3920.816,3674.494 3920.816,3674.494 L 3906.149,3678.494 L 3890.149,3675.162 L 3877.482,3666.494 L 3869.482,3665.828 C 3869.482,3665.828 3850.15,3641.16 3846.816,3640.494 C 3843.482,3639.828 3821.482,3601.828 3821.482,3601.828 L 3817.482,3565.828 L 3816.816,3501.162 C 3816.816,3501.162 3818.149,3463.162 3818.149,3461.162 C 3818.149,3459.162 3830.816,3434.494 3830.816,3434.494 L 3861.482,3397.162 C 3861.482,3397.162 3878.815,3377.828 3879.482,3374.494 C 3880.149,3371.162 3879.482,3353.828 3879.482,3353.828 L 3871.482,3328.494 L 3840.816,3322.494 L 3845.482,3293.162 L 3836.816,3244.494 L 3775.482,3262.494 L 3736.816,3208.494 L 3592.816,3302.494 L 3596.149,3278.494 L 3592.816,3265.828 L 3588.816,3258.494 L 3585.482,3255.162 L 3592.149,3243.828 L 3586.149,3224.494 L 3571.482,3214.494 C 3571.482,3214.494 3566.149,3200.496 3564.149,3199.828 C 3562.149,3199.162 3552.149,3192.494 3552.149,3192.494 L 3540.149,3177.162 L 3519.482,3173.162 L 3509.482,3155.828 L 3510.149,3147.162 L 3508.149,3137.828 L 3500.816,3135.162 L 3496.816,3125.162 L 3500.816,3112.494 L 3501.482,3102.494 L 3496.816,3093.162 L 3488.816,3085.828 L 3436.15,3113.162 L 3403.484,3122.494 C 3403.484,3122.494 3375.484,3133.162 3372.817,3133.162 C 3370.15,3133.162 3352.817,3139.162 3352.817,3139.162 C 3352.817,3139.162 3330.817,3151.828 3328.817,3151.828 C 3326.817,3151.828 3297.484,3161.828 3297.484,3161.828 L 3265.484,3161.828 C 3265.484,3161.828 3234.15,3161.162 3230.817,3161.162 C 3227.484,3161.162 3201.484,3162.494 3201.484,3162.494 L 3173.484,3163.828 C 3173.484,3163.828 3152.15,3163.828 3150.15,3163.828 C 3148.15,3163.828 3098.817,3165.162 3098.817,3165.162 L 3096.817,3144.494 L 3096.817,3120.494 L 3098.817,3100.494 L 3105.484,3069.828 L 3109.484,3047.828 L 3114.15,3036.494 C 3114.15,3036.494 3090.816,3051.828 3088.15,3051.828 C 3085.484,3051.828 3060.15,3070.494 3060.15,3070.494 C 3060.15,3070.494 3019.484,3055.162 3015.484,3053.162 C 3011.484,3051.162 2980.151,3035.162 2980.151,3035.162 C 2980.151,3035.162 2966.151,3030.494 2963.484,3030.494 C 2960.817,3030.494 2946.15,3039.162 2942.817,3039.828 C 2939.484,3040.494 2902.817,3051.828 2902.817,3051.828 L 2862.151,3061.162 L 2819.484,3071.828 L 2762.817,3093.162 L 2718.817,3107.828 L 2705.484,3045.162 L 2684.817,2997.828 C 2684.817,2997.828 2627.484,2848.496 2620.818,2847.828 C 2614.152,2847.162 2598.151,2838.494 2592.818,2838.494 C 2587.485,2838.494 2559.485,2845.828 2559.485,2845.828 C 2559.485,2845.828 2475.484,2894.494 2472.818,2895.162 C 2470.152,2895.828 2423.485,2920.494 2423.485,2920.494 C 2423.485,2920.494 2380.818,2947.828 2375.485,2947.162 C 2370.152,2946.494 2293.485,2976.494 2293.485,2976.494 L 2292.152,3007.162 L 2368.152,3237.828 L 2362.818,3263.162 L 2327.485,3355.828 C 2327.485,3355.828 2233.485,3351.828 2225.485,3353.162 C 2217.485,3354.494 2108.818,3349.828 2108.818,3349.828 L 2094.151,3231.828 L 1979.485,3235.828 C 1979.485,3235.828 1986.151,3179.16 1984.151,3178.494 C 1982.151,3177.828 1914.818,3142.494 1914.818,3142.494 L 1845.815,3094.159 z " />

	
	
	
	
	
	
	
	
	
	
	
	
	
	
	
	
	
	
	
	
	
	
	
	
	
	
	
	
	
	
	
	
	
	
	
	
	
	
	
	
	
	
	
	
	
	
	
	
	
	
	
	
	
	
	
	
	
	
	
	
	
	
	
	
	
	
	
	
	
	
	
	
	
	
	
	
	
	
	
	
	
	
	
	
	
	
	
	
	
	
	
	
	
	
	
	
	
	
	
	
	
	
	
	
	
	
	
	
	
	
	
	
	
	
	
	
	
	
	
	
	
	
	
	
	
	
	
	
	
	
	
	
	
	
	
	
	
	
	
	
	
	
	
	
	
	
	
	
	
	
	
	
	
	
	
	
	
	
	
	
	
	
	
	
	
	
	
	
	
	
	
	
	
	
	
	
	
	
	
	
	
	
	
	
	
	
	
	
	
</defs>
<clipPath
   id="Schnittmaske_2_">
	<use
   xlink:href="#Schnittmaske"
   id="use18"
   x="0"
   y="0"
   width="5048.2329"
   height="3701.373" />
</clipPath>






<g
   id="Grenzen"
   clip-path="url(#Schnittmaske_2_)"
   style="stroke:#39f200;stroke-opacity:1"
   transform="matrix(1.095912,0,0,1.095912,-42.66057,-174.8548)">
	<path
   d="M 267.383,2756.772 L 293.383,2749.772 L 304.883,2750.772 L 324.383,2744.772 L 335.883,2735.772 L 386.383,2725.272 L 440.383,2715.272 L 477.383,2678.272 L 506.883,2633.272 L 526.883,2615.272 L 576.383,2571.772 L 626.383,2570.772 L 648.383,2528.772 L 673.883,2494.272 L 688.883,2383.272 L 731.216,2390.605 C 731.216,2390.605 739.883,2383.273 745.216,2385.939 C 750.549,2388.605 755.216,2389.272 755.216,2395.272 C 755.216,2401.272 756.549,2408.606 758.549,2409.939 C 760.549,2411.272 764.549,2417.273 767.882,2415.939 C 771.215,2414.605 779.215,2401.939 783.882,2399.272 C 788.549,2396.605 792.549,2390.605 800.549,2392.605 C 808.549,2394.605 849.882,2401.939 849.882,2401.939 C 849.882,2401.939 881.882,2391.273 891.215,2391.939 C 900.548,2392.605 917.215,2396.605 917.215,2396.605 C 917.215,2396.605 976.548,2379.938 979.882,2380.605 C 983.216,2381.272 1031.882,2392.605 1034.549,2394.605 C 1037.216,2396.605 1134.549,2416.605 1134.549,2416.605 L 1177.882,2417.272 L 1191.215,2404.605 C 1191.215,2404.605 1194.548,2410.606 1198.548,2411.939 C 1202.548,2413.272 1230.548,2402.605 1230.548,2402.605 L 1305.215,2386.605 L 1377.882,2361.272 L 1493.215,2387.272 L 1499.215,2383.939 C 1499.215,2383.939 1525.215,2387.939 1527.882,2387.939 C 1530.549,2387.939 1585.882,2387.272 1587.882,2387.272 C 1589.882,2387.272 1643.882,2411.939 1643.882,2411.939 C 1643.882,2411.939 1649.215,2396.605 1653.215,2398.605 C 1657.215,2400.605 1658.548,2402.605 1658.548,2402.605 L 1663.215,2395.939 L 1703.215,2384.605 L 1713.882,2381.272 L 1713.882,2392.605 L 1781.215,2464.605 L 1787.882,2466.605 L 1790.549,2488.605 L 1801.882,2489.939 L 1812.549,2482.605 L 1820.549,2488.605 L 1825.215,2499.272 L 1837.215,2499.939 L 1962.549,2785.272 L 1933.215,2809.272 L 1909.215,2871.939 L 1773.215,2963.272 L 1775.215,2993.939"
   id="path474"
   style="fill:none;stroke:#39f200;stroke-width:8;stroke-opacity:1" />
	<path
   d="M 805.565,1092.158 L 799.882,1117.272 C 799.882,1117.272 815.882,1151.272 817.215,1157.939 C 818.548,1164.606 815.215,1185.939 820.548,1193.272 C 825.881,1200.605 869.881,1237.939 870.548,1243.272 C 871.215,1248.605 868.548,1263.272 871.881,1267.272 C 875.214,1271.272 885.214,1277.272 885.214,1282.605 C 885.214,1287.938 887.214,1301.272 888.547,1303.272 C 889.88,1305.272 901.88,1309.272 900.547,1320.605 C 899.214,1331.938 894.547,1339.938 895.88,1343.938 C 897.213,1347.938 929.88,1383.271 929.88,1383.271 C 929.88,1383.271 1073.88,1485.271 1085.213,1487.938 C 1096.546,1490.605 1193.213,1491.271 1193.213,1491.271 L 1193.88,1501.271 L 1220.547,1571.271 C 1220.547,1571.271 1214.547,1603.271 1214.547,1605.938 C 1214.547,1608.605 1227.88,1609.271 1233.214,1617.271 C 1238.548,1625.271 1243.881,1637.938 1243.881,1637.938 L 1285.214,1652.605 L 1279.214,1699.272 C 1279.214,1699.272 1268.547,1695.272 1261.881,1699.939 C 1255.215,1704.606 1235.881,1719.939 1235.881,1719.939 C 1235.881,1719.939 1186.548,1715.939 1179.214,1720.606 C 1171.88,1725.273 1147.881,1738.606 1141.214,1740.606 C 1134.547,1742.606 1070.547,1749.273 1067.214,1747.273 C 1063.881,1745.273 1048.547,1737.273 1048.547,1737.273 C 1048.547,1737.273 1064.547,1773.273 1057.214,1777.273 C 1049.881,1781.273 1042.547,1775.94 1042.547,1775.94 C 1042.547,1775.94 1000.547,1759.94 992.547,1761.273 C 984.547,1762.606 947.88,1770.606 945.88,1770.606 C 943.88,1770.606 881.88,1769.273 881.88,1769.273 C 881.88,1769.273 877.88,1787.94 875.88,1791.94 C 873.88,1795.94 867.88,1806.607 867.88,1811.94 C 867.88,1817.273 873.88,1876.606 874.547,1881.273 C 875.214,1885.94 881.88,1907.273 881.88,1907.273 C 881.88,1907.273 884.547,1911.94 882.547,1911.94 C 880.547,1911.94 869.88,1909.94 869.88,1909.94 L 843.88,1959.273 L 825.88,1960.606 C 825.88,1960.606 807.213,2004.606 807.213,2008.606 C 807.213,2012.606 812.546,2029.273 812.546,2029.273 L 741.879,2071.94 L 718.546,2073.273 L 683.879,2096.606 C 683.879,2096.606 687.879,2145.272 685.879,2150.606 C 683.879,2155.94 667.212,2185.94 669.879,2197.273 C 672.546,2208.606 693.879,2247.94 693.879,2247.94 C 693.879,2247.94 698.546,2257.94 691.879,2281.273 C 685.212,2304.606 681.212,2305.94 682.546,2315.94 C 683.88,2325.94 689.213,2353.274 689.213,2357.94 C 689.213,2362.606 688.88,2383.273 688.88,2383.273"
   id="path476"
   style="fill:none;stroke:#39f200;stroke-width:8;stroke-opacity:1" />
	<path
   d="M 1587.883,2387.272 L 1582.55,2271.273 L 1662.55,2265.939 L 1691.217,2257.273 L 1685.217,2118.606 C 1685.217,2118.606 1683.883,2055.273 1684.55,2048.606 C 1685.217,2041.939 1693.217,2021.273 1692.55,2017.273 C 1691.883,2013.273 1689.883,2009.273 1689.883,2009.273 C 1689.883,2009.273 1677.217,2002.606 1679.217,2002.606 C 1681.217,2002.606 1703.883,1959.273 1703.883,1959.273 L 1688.55,1955.273 L 1683.883,1945.273 C 1683.883,1945.273 1670.551,1949.939 1665.217,1946.606 C 1659.883,1943.273 1650.55,1940.605 1651.883,1937.939 C 1653.216,1935.273 1659.883,1917.273 1659.883,1917.273 C 1659.883,1917.273 1622.55,1902.606 1625.216,1902.606 C 1627.882,1902.606 1639.883,1898.605 1643.883,1893.939 C 1647.883,1889.273 1651.216,1883.273 1651.216,1883.273 L 1629.549,1875.273 L 1667.882,1865.606 L 1664.549,1854.939 C 1664.549,1854.939 1654.882,1844.606 1652.549,1839.606 C 1650.216,1834.606 1650.216,1830.939 1650.216,1830.939 C 1650.216,1830.939 1640.549,1834.94 1632.549,1830.273 C 1624.549,1825.606 1619.215,1824.606 1616.882,1814.606 C 1614.549,1804.606 1613.215,1795.607 1614.215,1790.273 C 1615.215,1784.939 1615.882,1779.605 1612.215,1773.939 C 1608.548,1768.273 1596.548,1753.607 1588.882,1750.273 C 1581.216,1746.939 1573.215,1742.273 1565.215,1745.273 C 1557.215,1748.273 1550.215,1749.607 1548.215,1754.273 C 1546.215,1758.939 1541.882,1771.272 1542.882,1775.939 C 1543.882,1780.606 1543.549,1783.273 1543.215,1784.273 C 1542.881,1785.273 1538.548,1793.939 1537.215,1793.939 C 1535.882,1793.939 1528.215,1786.606 1528.215,1786.606 L 1513.882,1734.939 L 1499.549,1685.272 L 1523.216,1674.272 C 1523.216,1674.272 1526.549,1668.606 1525.549,1666.939 C 1524.549,1665.272 1523.549,1660.606 1521.216,1660.606 C 1518.883,1660.606 1498.883,1666.273 1498.883,1666.273 L 1486.55,1627.94 L 1589.883,1596.273 L 1585.883,1556.94 L 1516.216,1482.607 L 1238.883,1490.773 L 1193.883,1489.773"
   id="path478"
   style="fill:none;stroke:#39f200;stroke-width:8;stroke-opacity:1" />
	<path
   d="M 2307.883,2971.272 C 2307.883,2971.272 2286.883,2967.272 2281.883,2964.272 C 2276.883,2961.272 2241.383,2941.272 2234.383,2941.272 C 2227.383,2941.272 2189.383,2949.272 2185.383,2951.772 C 2181.383,2954.272 2181.383,2954.272 2181.383,2954.272 L 2157.383,2897.772 L 2161.383,2887.272 C 2161.383,2887.272 2192.383,2873.272 2192.383,2870.772 C 2192.383,2868.272 2194.883,2855.772 2194.883,2855.772 L 2174.883,2848.772 L 2197.383,2788.772 C 2197.383,2788.772 2196.883,2762.772 2198.883,2762.772 C 2200.883,2762.772 2211.383,2732.272 2211.383,2727.272 C 2211.383,2722.272 2213.883,2706.272 2213.883,2706.272 L 2220.383,2692.772 C 2220.383,2692.772 2220.383,2679.772 2220.383,2678.272 C 2220.383,2676.772 2234.383,2598.772 2234.383,2598.772 L 2253.883,2511.272 L 2257.883,2512.272 L 2279.383,2460.272 L 2315.883,2458.272 L 2302.883,2447.272 L 2272.883,2431.772 C 2272.883,2431.772 2275.883,2416.272 2279.383,2416.272 C 2282.883,2416.272 2288.883,2417.772 2288.883,2417.772 L 2288.883,2408.772 L 2281.383,2404.772 C 2281.383,2404.772 2281.883,2358.272 2276.883,2359.772 C 2271.883,2361.272 2245.383,2365.772 2245.383,2365.772 C 2245.383,2365.772 2213.383,2220.772 2211.383,2220.772 C 2209.383,2220.772 2194.383,2231.772 2194.383,2231.772 L 2168.383,2226.772 L 2159.883,2201.772 L 2162.883,2145.772 C 2162.883,2145.772 2172.883,2127.772 2174.383,2127.772 C 2175.883,2127.772 2168.383,2107.772 2168.383,2107.772 C 2168.383,2107.772 2255.883,2122.272 2257.383,2122.772 C 2258.883,2123.272 2270.883,2131.272 2271.383,2129.272 C 2271.883,2127.272 2280.883,2110.272 2280.883,2110.272 L 2240.883,2021.772 L 2381.883,2083.772 L 2420.883,2027.772 L 2432.883,2029.272 C 2432.883,2029.272 2449.383,1995.772 2461.883,1993.272 C 2474.383,1990.772 2476.383,1991.772 2476.383,1991.772 L 2539.883,2011.272 L 2537.383,2021.272 C 2537.383,2021.272 2559.883,2037.772 2564.883,2038.272 C 2569.883,2038.772 2576.883,2038.772 2577.883,2040.772 C 2578.883,2042.772 2593.883,2052.272 2595.883,2052.272 C 2597.883,2052.272 2614.883,2054.272 2614.883,2054.272 L 2642.383,2079.772 C 2642.383,2079.772 2644.883,2096.772 2646.383,2094.772 C 2647.883,2092.772 2651.883,2086.272 2651.883,2086.272 C 2651.883,2086.272 2667.883,2086.772 2669.383,2089.272 C 2670.883,2091.772 2677.883,2105.772 2677.883,2105.772 L 2696.883,2090.272 C 2696.883,2090.272 2704.383,2080.272 2713.383,2082.772 C 2722.383,2085.272 2730.383,2086.272 2730.383,2086.272 L 2733.383,2077.272 C 2733.383,2077.272 2717.883,2070.272 2715.883,2068.772 C 2713.883,2067.272 2711.383,2059.772 2711.383,2059.772 L 2687.883,2043.772 L 2680.883,2043.772 L 2678.383,2038.772 C 2678.383,2038.772 2670.883,2051.272 2669.383,2050.272 C 2667.883,2049.272 2656.883,2042.272 2656.883,2042.272 L 2646.383,2026.772 C 2646.383,2026.772 2615.883,2012.272 2617.383,2009.772 C 2618.883,2007.272 2622.383,1995.272 2622.383,1995.272 L 2572.883,1964.272 L 2585.383,1893.772 L 2595.883,1875.772 L 2614.383,1837.772 L 2608.383,1791.272 C 2608.383,1791.272 2617.383,1794.272 2617.383,1792.772 C 2617.383,1791.272 2597.883,1746.772 2597.883,1746.772 L 2578.883,1722.772 C 2578.883,1722.772 2522.383,1736.772 2518.383,1737.272 C 2514.383,1737.772 2468.383,1730.772 2468.383,1725.272 C 2468.383,1719.772 2471.383,1714.772 2471.383,1714.772 C 2471.383,1714.772 2443.883,1654.772 2442.383,1654.772 C 2440.883,1654.772 2404.383,1672.272 2404.383,1672.272 L 2370.883,1627.272 C 2370.883,1627.272 2348.383,1651.272 2346.883,1648.772 C 2345.383,1646.272 2340.883,1642.272 2340.883,1642.272 L 2256.883,1661.772 C 2256.883,1661.772 2256.383,1668.772 2252.383,1667.772 C 2248.383,1666.772 2240.883,1664.772 2240.883,1664.772 L 2221.883,1692.772 C 2221.883,1692.772 2270.383,1712.772 2268.383,1714.772 C 2266.383,1716.772 2262.883,1722.772 2262.883,1722.772 L 2286.883,1734.272 C 2286.883,1734.272 2284.883,1761.272 2282.383,1761.272 C 2279.883,1761.272 2272.883,1755.772 2272.883,1758.272 C 2272.883,1760.772 2267.383,1768.272 2267.383,1768.272 L 2276.883,1774.272 C 2276.883,1774.272 2244.883,1835.772 2250.883,1840.772 C 2256.883,1845.772 2299.883,1879.272 2299.883,1879.272 L 2285.883,1911.272 C 2285.883,1911.272 2279.883,1920.772 2269.383,1923.272 C 2258.883,1925.772 2251.383,1926.272 2247.883,1925.272 C 2244.383,1924.272 2227.883,1919.272 2229.383,1919.272 C 2230.883,1919.272 2223.383,1933.772 2223.383,1933.772 L 2202.383,1927.272 L 2198.383,1934.772 L 2181.383,1928.772 C 2181.383,1928.772 2172.383,1906.272 2169.883,1907.272 C 2167.383,1908.272 2155.383,1916.772 2155.383,1916.772 L 2134.383,1891.272 L 2130.383,1896.772 L 2115.883,1888.772 C 2115.883,1888.772 2096.883,1890.272 2097.383,1891.772 C 2097.883,1893.272 2094.883,1900.772 2094.883,1900.772 C 2094.883,1900.772 1963.883,1924.272 1958.883,1919.772 C 1953.883,1915.272 1947.383,1907.772 1947.383,1907.772 L 1929.383,1971.772 L 1922.383,1961.772 L 1912.383,1982.272 C 1912.383,1982.272 1911.383,1994.272 1909.383,1998.772 C 1907.383,2003.272 1897.383,2017.772 1897.383,2017.772 L 1861.383,2011.772 L 1808.883,1992.772 L 1703.883,1959.273"
   id="path480"
   style="fill:none;stroke:#39f200;stroke-width:8;stroke-opacity:1" />
	<path
   d="M 1407.383,1484.272 C 1407.383,1484.272 1458.883,1373.772 1460.883,1373.772 C 1462.883,1373.772 1557.383,1341.772 1560.383,1338.272 C 1563.383,1334.772 1564.883,1323.272 1568.883,1323.772 C 1572.883,1324.272 1602.383,1324.772 1602.383,1324.772 L 1638.383,1297.272 C 1638.383,1297.272 1720.883,1319.272 1723.383,1319.272 C 1725.883,1319.272 1791.383,1315.272 1791.383,1316.772 C 1791.383,1318.272 1793.383,1328.772 1794.883,1328.272 C 1796.383,1327.772 1832.883,1318.272 1832.883,1318.272 L 1836.883,1352.772 L 1873.383,1325.772 L 1913.383,1320.272 L 1920.383,1257.272 C 1920.383,1257.272 1934.383,1254.272 1938.883,1250.272 C 1943.383,1246.272 1954.383,1239.272 1954.383,1239.272 L 1980.883,1242.272 L 1987.883,1231.772 L 1977.883,1222.272 L 1980.383,1217.772 L 1943.383,1189.272 C 1943.383,1189.272 1941.883,1192.772 1939.383,1192.772 C 1936.883,1192.772 1931.383,1192.772 1924.883,1189.272 C 1918.383,1185.772 1914.883,1178.272 1914.883,1178.272 L 1897.383,1167.272 C 1897.383,1167.272 1890.383,1157.772 1883.883,1153.272 C 1877.383,1148.772 1856.383,1137.772 1856.383,1137.772 L 1811.383,1095.772 L 1807.383,1098.772 L 1690.383,1005.272 C 1690.383,1005.272 1713.883,995.772 1719.883,995.772 C 1725.883,995.772 1760.883,992.772 1770.383,990.272 C 1779.883,987.772 1782.883,986.772 1782.883,986.772 C 1782.883,986.772 1831.883,912.772 1834.383,907.272 C 1836.883,901.772 1871.883,804.272 1871.883,800.772 C 1871.883,797.272 1869.883,750.272 1867.383,744.772 C 1864.883,739.272 1801.383,602.772 1801.383,602.772"
   id="path482"
   style="fill:none;stroke:#39f200;stroke-width:8;stroke-opacity:1" />
	<path
   d="M 2753.383,870.272 C 2753.383,870.272 2647.883,948.272 2644.383,952.272 C 2640.883,956.272 2627.883,976.772 2627.883,980.272 C 2627.883,983.772 2624.383,994.272 2624.383,994.272 L 2611.383,1018.272 L 2606.383,1025.772 L 2596.883,1024.272 C 2596.883,1024.272 2593.883,1058.772 2593.883,1063.772 C 2593.883,1068.772 2599.883,1086.272 2599.883,1086.272 L 2595.383,1088.772 L 2595.883,1143.272 L 2621.883,1144.272 L 2622.383,1159.272 L 2651.883,1185.272 L 2630.383,1218.272 L 2630.383,1233.272 C 2630.383,1233.272 2645.383,1235.272 2645.383,1237.772 C 2645.383,1240.272 2644.383,1266.772 2644.383,1266.772 C 2644.383,1266.772 2654.383,1264.772 2659.383,1267.772 C 2664.383,1270.772 2682.883,1280.272 2685.883,1284.772 C 2688.883,1289.272 2707.383,1315.272 2707.383,1315.272 C 2707.383,1315.272 2715.883,1328.272 2716.383,1334.772 C 2716.883,1341.272 2710.383,1377.772 2710.383,1377.772 L 2653.883,1365.272 C 2653.883,1365.272 2626.383,1402.272 2624.383,1402.272 C 2622.383,1402.272 2614.383,1398.272 2614.383,1398.272 C 2614.383,1398.272 2607.883,1401.272 2609.383,1402.272 C 2610.883,1403.272 2617.883,1414.272 2617.883,1414.272 L 2612.883,1423.772 C 2612.883,1423.772 2549.883,1425.272 2546.883,1424.772 C 2543.883,1424.272 2533.383,1417.272 2530.383,1417.772 C 2527.383,1418.272 2524.883,1418.272 2524.883,1418.272 L 2552.883,1508.272 L 2528.383,1545.272 C 2528.383,1545.272 2524.883,1562.772 2524.383,1566.272 C 2523.883,1569.772 2500.883,1632.772 2500.883,1632.772 L 2469.383,1647.772 L 2486.883,1675.272 C 2486.883,1675.272 2510.883,1686.772 2519.383,1688.272 C 2527.883,1689.772 2532.883,1688.772 2538.383,1690.272 C 2543.883,1691.772 2561.383,1700.772 2564.883,1704.772 C 2568.383,1708.772 2578.883,1722.772 2578.883,1722.772"
   id="path484"
   style="fill:none;stroke:#39f200;stroke-width:8;stroke-opacity:1" />
	<path
   d="M 2728.883,2086.272 C 2728.883,2086.272 2739.883,2097.772 2741.383,2100.272 C 2742.883,2102.772 2754.383,2130.272 2754.383,2130.272 L 2787.383,2130.772 L 2803.883,2137.772 L 2810.383,2132.772 L 2819.383,2153.772 L 2828.383,2181.772 C 2828.383,2181.772 2860.383,2217.772 2862.883,2218.272 C 2865.383,2218.772 2886.383,2206.272 2896.383,2208.272 C 2906.383,2210.272 2941.383,2225.272 2941.383,2225.272 L 2948.383,2210.272 L 3014.883,2286.772 C 3014.883,2286.772 3067.217,2201.273 3069.217,2202.606 C 3071.217,2203.939 3092.55,2217.273 3092.55,2217.273 L 3131.884,2220.606 C 3131.884,2220.606 3125.883,2213.939 3128.55,2213.939 C 3131.217,2213.939 3155.217,2213.939 3155.217,2213.939 C 3155.217,2213.939 3149.884,2183.939 3145.217,2177.939 C 3140.55,2171.939 3130.55,2147.939 3126.55,2147.939 C 3122.55,2147.939 3122.55,2147.939 3122.55,2147.939 L 3121.217,2121.273 C 3121.217,2121.273 3135.217,2098.606 3133.217,2088.606 C 3131.217,2078.606 3127.884,2073.273 3127.884,2073.273 L 3093.884,2000.606 C 3093.884,2000.606 3091.217,1985.273 3091.217,1980.606 C 3091.217,1975.939 3092.55,1977.939 3089.217,1971.939 C 3085.884,1965.939 3073.884,1945.939 3073.884,1945.939 L 3055.217,1942.606 L 3021.217,1868.606 C 3021.217,1868.606 3026.55,1855.273 3026.55,1853.273 C 3026.55,1851.273 3023.218,1820.606 3025.884,1820.606 C 3028.55,1820.606 3036.55,1819.939 3036.55,1819.939 C 3036.55,1819.939 3037.884,1801.939 3029.217,1791.939 C 3020.55,1781.939 3010.55,1777.273 3010.55,1777.273 L 2903.217,1779.939 C 2903.217,1779.939 2901.884,1675.939 2899.884,1657.272 C 2897.884,1638.605 2889.217,1573.272 2885.217,1561.272 C 2881.217,1549.272 2873.884,1541.939 2873.884,1541.939 L 2909.217,1533.939 C 2909.217,1533.939 2943.884,1511.272 2951.217,1509.272 C 2958.55,1507.272 2979.217,1496.605 2979.217,1496.605 L 2924.55,1316.605 C 2924.55,1316.605 3015.217,1195.272 3019.217,1193.938 C 3023.217,1192.604 3037.218,1187.938 3039.884,1183.271 C 3042.55,1178.604 3049.217,1168.604 3049.217,1168.604 L 3186.55,1109.271 L 3193.217,1090.604"
   id="path486"
   style="fill:none;stroke:#39f200;stroke-width:8;stroke-opacity:1" />
	<path
   d="M 3560.883,2218.272 L 3557.383,2223.272 L 3539.383,2220.272 L 3536.383,2202.272 L 3500.883,2205.272 C 3500.883,2205.272 3385.883,2116.772 3381.883,2117.272 C 3377.883,2117.772 3352.883,2131.772 3352.883,2131.772 L 3338.883,2121.272 L 3308.383,2140.772 C 3308.383,2140.772 3308.383,2157.772 3304.383,2163.772 C 3300.383,2169.772 3262.383,2195.772 3261.383,2197.272 C 3260.383,2198.772 3259.383,2206.772 3257.383,2207.272 C 3255.383,2207.772 3247.383,2209.272 3247.383,2209.272 L 3244.383,2205.272 C 3244.383,2205.272 3224.883,2214.772 3212.383,2215.272 C 3199.883,2215.772 3155.217,2213.939 3155.217,2213.939"
   id="path488"
   style="fill:none;stroke:#39f200;stroke-width:8;stroke-opacity:1" />
	<path
   d="M 2960.55,3029.273 L 2969.217,3014.606 C 2969.217,3014.606 2967.217,3007.939 2969.217,3005.939 C 2971.217,3003.939 2987.217,2986.606 2987.217,2986.606 L 3001.884,2949.939 C 3001.884,2949.939 3007.884,2922.607 3007.884,2917.273 C 3007.884,2911.939 3004.55,2905.273 3004.55,2905.273 L 3009.884,2892.606 L 2995.884,2883.939 L 3001.884,2871.273 L 2995.217,2854.606 L 2994.55,2840.606 L 2982.55,2826.606 C 2982.55,2826.606 2978.55,2816.606 2978.55,2814.606 C 2978.55,2812.606 2965.884,2803.94 2965.884,2795.273 C 2965.884,2786.606 2971.217,2763.939 2971.217,2763.939 L 2967.217,2748.606 L 2935.217,2745.939 C 2935.217,2745.939 2875.218,2723.273 2869.884,2719.273 C 2864.55,2715.273 2807.217,2674.606 2807.217,2674.606 L 2677.217,2585.273 C 2677.217,2585.273 2582.55,2523.272 2573.883,2511.939 C 2565.216,2500.606 2522.55,2415.273 2522.55,2415.273 L 2641.216,2415.273 C 2641.216,2415.273 2642.55,2393.272 2650.55,2381.939 C 2658.55,2370.606 2665.882,2359.939 2663.216,2349.939 C 2660.55,2339.939 2624.55,2292.606 2624.55,2292.606 C 2624.55,2292.606 2597.883,2259.272 2597.883,2249.939 C 2597.883,2240.606 2601.216,2213.939 2601.216,2213.939 L 2507.216,2115.939 L 2493.883,2133.273 L 2433.216,2089.939 L 2417.216,2108.606 L 2381.883,2083.772"
   id="path490"
   style="fill:none;stroke:#39f200;stroke-width:8;stroke-opacity:1" />
	<path
   d="M 2165.883,2140.272 L 2147.883,2155.272 L 2129.883,2153.272 C 2129.883,2153.272 2123.883,2169.272 2120.883,2169.272 C 2117.883,2169.272 2082.883,2174.272 2079.883,2171.272 C 2076.883,2168.272 2079.883,2149.272 2075.883,2149.272 C 2071.883,2149.272 2023.883,2150.272 2023.883,2150.272 C 2023.883,2150.272 2023.883,2163.272 2020.883,2163.272 C 2017.883,2163.272 1938.883,2167.272 1938.883,2167.272 L 1941.883,2138.272 L 1936.883,2135.272 C 1936.883,2135.272 1940.883,2114.272 1943.883,2114.272 C 1946.883,2114.272 1946.883,2114.272 1946.883,2114.272 L 1947.883,2100.272 L 1952.883,2090.272 L 1900.883,2072.272 L 1891.883,2030.272 L 1897.883,2015.272"
   id="path492"
   style="fill:none;stroke:#39f200;stroke-width:8;stroke-opacity:1" />
	<path
   d="M 2221.883,1692.772 C 2221.883,1692.772 2200.883,1681.272 2186.883,1673.272 C 2172.883,1665.272 2122.883,1652.272 2122.883,1652.272 C 2122.883,1652.272 2129.883,1640.272 2128.883,1636.272 C 2127.883,1632.272 2127.883,1625.272 2127.883,1625.272 C 2127.883,1625.272 2142.883,1603.272 2139.883,1600.272 C 2136.883,1597.272 2130.883,1591.272 2130.883,1591.272 C 2130.883,1591.272 2115.883,1541.272 2112.883,1540.272 C 2109.883,1539.272 2100.883,1533.272 2100.883,1533.272 C 2100.883,1533.272 2077.883,1481.272 2077.883,1475.272 C 2077.883,1469.272 2067.883,1435.272 2067.883,1435.272 L 2065.883,1420.939 C 2065.883,1420.939 2055.55,1423.939 2055.55,1421.939 C 2055.55,1419.939 2058.216,1396.939 2058.216,1396.939 L 2050.883,1365.272 C 2050.883,1365.272 2051.216,1329.939 2048.216,1322.605 C 2045.216,1315.271 2024.217,1273.272 2021.55,1270.938 C 2018.883,1268.604 1983.883,1238.605 1983.883,1238.605"
   id="path494"
   style="fill:none;stroke:#39f200;stroke-width:8;stroke-opacity:1" />
	<path
   id="Berlin"
   d="M 1845.565,3094.159 L 1779.565,3036.659 L 1779.565,2992.159 L 1664.065,3070.659 L 1609.065,3107.659 L 1574.565,3140.159 L 1556.565,3114.159 L 1454.565,2979.159 L 1461.565,2973.659 L 1464.065,2966.159 L 1459.565,2959.659 L 1414.065,3005.659 L 1366.065,3055.659 L 1337.565,3082.159 L 1308.065,3099.159 L 1279.565,3104.659 L 1262.565,3104.659 L 1244.565,3101.659 L 1223.065,3090.159 L 1207.565,3085.659 L 1185.065,3085.659 L 1146.065,3105.159 L 1145.565,3098.159 C 1145.565,3098.159 1145.065,3083.659 1145.065,3081.659 C 1145.065,3079.659 1139.565,3066.159 1139.565,3066.159 L 1138.565,3048.159 C 1138.565,3048.159 1136.565,3022.159 1136.565,3020.659 C 1136.565,3019.159 1129.565,2991.659 1129.565,2991.659 L 1121.565,2966.159 L 1120.565,2947.659 L 1110.065,2926.159 L 1075.065,2932.159 C 1075.065,2932.159 1041.565,2933.159 1040.065,2933.159 C 1038.565,2933.159 1025.065,2938.659 1025.065,2938.659 L 967.065,2934.159 L 940.065,2948.659 L 910.565,2963.659 L 867.565,2988.659 L 820.065,3002.659 L 794.065,3009.159 L 777.565,3010.159 L 752.065,3028.659 L 533.065,3160.159 L 533.065,3181.159 L 531.065,3204.159 L 524.565,3237.159 L 532.065,3236.159 L 565.065,3229.159 L 586.565,3224.159 L 617.565,3214.659 L 620.565,3237.659 L 599.065,3254.159 L 569.065,3257.659 L 529.565,3263.159 L 501.065,3254.159 L 479.565,3251.659 L 450.065,3250.159 L 427.065,3241.159 L 424.065,3233.659 L 402.065,3249.159 L 378.565,3272.659 L 356.065,3298.659 L 346.565,3313.159 C 346.565,3313.159 356.565,3324.159 359.065,3325.159 C 361.565,3326.159 367.065,3336.159 367.065,3336.159 L 364.565,3347.659 L 350.565,3348.659 L 330.065,3336.159 C 330.065,3336.159 319.065,3327.159 319.065,3325.659 C 319.065,3324.159 322.565,3301.659 322.565,3301.659 L 328.065,3296.159 L 348.565,3294.159 L 360.065,3281.659 C 360.065,3281.659 378.065,3263.659 378.565,3262.159 C 379.065,3260.659 395.065,3244.659 395.065,3244.659 L 377.565,3245.659 L 375.565,3241.659 L 371.065,3233.659 L 392.565,3225.659 L 360.065,3213.159 L 355.565,3216.159 L 349.565,3225.659 L 339.565,3235.659 L 325.565,3241.659 L 312.065,3247.659 C 312.065,3247.659 300.065,3240.659 298.565,3240.159 C 297.065,3239.659 284.565,3230.659 284.565,3230.659 L 271.565,3211.659 L 255.565,3192.659 L 249.065,3186.659 L 237.565,3181.659 L 217.565,3175.659 L 204.065,3162.659 L 202.065,3152.159 L 191.565,3139.659 L 184.565,3134.159 L 186.065,3131.159 L 193.065,3123.659 L 186.065,3118.659 L 172.565,3118.659 L 174.565,3110.659 L 179.565,3102.159 L 186.565,3093.159 L 192.565,3080.159 L 192.065,3072.159 L 172.065,3064.659 L 169.173,3073.733 L 172.173,3093.233 L 167.673,3103.733 L 154.173,3102.233 L 133.174,3102.233 L 133.174,3087.233 L 130.174,3069.233 L 124.174,3066.235 L 101.675,3076.733 L 104.675,3087.233 L 118.175,3099.233 L 118.175,3108.231 L 103.176,3114.231 L 94.176,3105.233 L 74.677,3100.733 C 74.677,3100.733 62.677,3097.733 58.177,3093.233 C 53.677,3088.733 59.677,3073.733 59.677,3073.733 L 53.677,3055.735 L 50.677,3033.235 L 38.677,3007.737 L 47.677,3004.737 L 74.676,2983.739 L 97.175,2965.739 L 113.675,2938.741 C 113.675,2938.741 121.175,2943.241 125.674,2943.241 C 130.173,2943.241 148.173,2947.739 148.173,2947.739 L 157.173,2931.241 L 182.672,2905.743 L 202.171,2887.743 L 196.171,2857.745 L 199.171,2848.745 L 218.67,2824.747 L 245.669,2802.247 L 269.668,2791.747 L 269.668,2778.249 L 275.668,2766.249 L 256.168,2749.751 L 235.169,2716.751 L 226.17,2712.251 L 212.67,2709.251 L 200.671,2694.253 L 206.671,2685.253 L 190.172,2668.753 L 169.173,2653.755 L 172.173,2641.755 L 179.565,2619.659 L 182.065,2586.659 L 179.565,2564.159 L 165.065,2552.159 L 170.065,2526.659 L 166.565,2505.159 L 162.565,2490.659 L 184.565,2447.659 C 184.565,2447.659 195.565,2419.159 196.565,2417.659 C 197.565,2416.159 205.565,2392.159 205.565,2390.659 C 205.565,2389.159 205.565,2376.159 205.565,2376.159 L 205.065,2355.659 L 263.065,2337.159 L 307.065,2275.159 L 355.065,2206.159 L 411.565,2124.159 L 454.065,2068.659 L 496.065,2016.659 C 496.065,2016.659 509.065,2004.159 509.065,2002.659 C 509.065,2001.159 521.565,1985.159 521.565,1985.159 L 529.065,1982.659 L 466.065,1950.159 L 447.065,1942.159 L 412.065,1920.659 L 376.565,1902.659 L 364.065,1901.659 L 358.565,1886.659 L 347.065,1877.659 L 328.565,1881.159 L 283.565,1895.659 C 283.565,1895.659 243.565,1907.659 241.565,1907.659 C 239.565,1907.659 211.065,1911.659 211.065,1911.659 L 175.565,1914.659 L 179.565,1880.659 L 180.065,1854.659 L 180.065,1808.159 L 182.065,1766.159 L 185.065,1741.159 L 199.065,1702.659 L 204.065,1679.659 L 207.065,1640.159 L 211.065,1618.159 L 216.565,1573.659 L 230.065,1515.159 L 238.065,1475.659 L 251.565,1485.659 C 251.565,1485.659 262.565,1499.659 264.065,1500.159 C 265.565,1500.659 284.565,1507.659 284.565,1507.659 L 308.065,1512.159 C 308.065,1512.159 326.065,1513.659 327.565,1513.659 C 329.065,1513.659 335.065,1510.659 335.065,1510.659 L 341.565,1508.659 L 344.565,1500.159 L 344.565,1493.159 L 351.065,1484.159 L 351.065,1473.159 L 346.565,1440.159 L 337.565,1418.159 L 347.565,1404.159 L 349.565,1367.159 L 361.565,1345.159 L 368.565,1315.159 L 378.565,1302.159 L 378.565,1280.159 L 382.565,1272.159 L 381.565,1228.159 C 381.565,1228.159 369.565,1194.159 365.565,1188.159 C 361.565,1182.159 355.565,1168.159 355.565,1168.159 L 350.565,1162.159 L 310.565,1183.159 L 281.565,1196.159 L 267.565,1196.159 C 267.565,1196.159 243.565,1208.159 239.565,1208.159 C 235.565,1208.159 228.565,1194.159 228.565,1194.159 L 221.565,1173.159 L 209.565,1172.159 L 213.565,1142.159 L 205.565,1138.159 L 206.565,1128.159 L 212.565,1123.159 L 228.565,1131.159 L 258.565,1120.159 L 268.565,1103.159 L 307.565,1095.159 L 339.565,1074.159 L 368.565,1029.159 C 368.565,1029.159 382.565,1003.159 386.565,1001.159 C 390.565,999.159 418.565,989.159 418.565,989.159 L 444.565,985.159 L 463.565,1002.159 L 472.565,1005.159 L 485.565,1005.159 L 502.565,1018.159 L 514.565,1023.159 L 532.565,1025.159 L 548.565,1028.159 L 560.565,1032.159 L 579.565,1032.159 L 591.565,1046.159 L 608.565,1051.159 L 624.565,1064.159 L 644.565,1074.159 L 673.565,1076.159 L 706.565,1090.159 L 735.565,1104.159 L 741.565,1085.159 L 780.565,1084.159 L 805.565,1092.159 L 814.565,1058.159 L 814.565,1040.159 L 800.565,1020.159 L 778.565,1003.159 L 751.565,983.159 L 713.232,937.159 L 690.565,906.492 L 687.898,883.825 L 702.565,871.825 L 720.565,858.492 L 736.565,820.492 L 751.898,786.492 L 762.565,761.159 L 771.898,739.159 L 785.898,723.159 L 796.565,689.826 L 803.898,663.159 L 804.565,636.492 L 841.232,632.492 L 842.565,638.492 L 871.232,639.159 L 895.898,635.159 L 915.232,635.159 C 915.232,635.159 934.566,631.159 937.232,631.159 C 939.898,631.159 949.898,625.159 952.565,625.159 C 955.232,625.159 968.565,633.826 970.565,633.826 C 972.565,633.826 983.232,635.826 983.232,635.826 L 993.898,631.826 L 1023.232,632.493 L 1049.232,628.493 C 1049.232,628.493 1071.232,624.493 1076.565,625.826 C 1081.898,627.159 1103.232,633.826 1101.232,633.159 C 1099.232,632.492 1099.898,571.159 1099.898,571.159 L 1097.232,541.826 L 1089.898,521.159 L 1078.565,499.159 L 1077.232,479.826 C 1077.232,479.826 1113.231,488.493 1115.898,488.493 C 1118.565,488.493 1136.565,486.493 1136.565,486.493 L 1152.565,480.493 L 1175.232,481.826 C 1175.232,481.826 1203.231,473.826 1205.898,473.826 C 1208.565,473.826 1221.898,469.159 1221.898,469.159 L 1224.565,341.826 L 1200.565,341.826 L 1205.232,247.826 L 1245.232,257.826 L 1273.898,260.493 L 1312.565,259.16 L 1338.565,255.16 L 1370.565,251.827 L 1389.898,273.827 L 1327.898,322.494 L 1386.565,426.494 L 1392.565,427.827 C 1392.565,427.827 1387.232,462.494 1387.232,464.494 C 1387.232,466.494 1379.898,476.494 1379.898,476.494 L 1381.232,493.161 L 1379.232,513.828 L 1397.898,552.495 L 1403.232,573.162 L 1405.232,583.162 L 1359.898,610.495 L 1401.898,604.495 L 1426.565,599.828 C 1426.565,599.828 1459.232,613.161 1463.232,613.161 C 1467.232,613.161 1495.898,614.494 1495.898,614.494 L 1553.898,631.827 L 1593.898,650.494 L 1613.898,642.494 L 1643.232,635.827 L 1691.232,631.16 L 1695.232,642.493 L 1719.898,631.826 L 1735.898,634.493 L 1751.898,624.493 L 1767.898,615.16 L 1799.232,603.827 L 1808.565,601.16 L 1820.565,584.493 L 1828.565,582.493 L 1847.898,571.16 L 1861.898,553.827 L 1853.232,537.827 L 1872.565,502.494 L 1875.232,507.827 L 1884.565,498.494 L 1895.232,492.494 L 1892.565,487.161 L 1885.898,484.494 L 1899.232,475.827 L 1913.898,476.494 L 1929.898,468.494 L 1936.565,459.161 L 1940.565,437.828 L 1939.232,414.495 L 1953.898,395.162 L 1961.898,360.495 L 1964.565,351.162 L 1979.898,351.162 L 1981.898,345.162 L 1986.565,337.829 L 2025.898,373.829 L 2050.565,387.829 L 2062.565,399.829 C 2062.565,399.829 2089.898,385.162 2091.898,387.829 C 2093.898,390.496 2099.898,397.829 2099.898,397.829 L 2109.898,397.829 L 2109.898,415.162 C 2109.898,415.162 2132.565,439.162 2134.565,440.495 C 2136.565,441.828 2179.898,467.828 2179.898,467.828 L 2206.565,445.161 L 2231.232,447.828 L 2243.232,435.828 L 2236.565,405.828 L 2237.232,365.828 L 2278.565,352.495 L 2280.565,311.162 L 2299.898,304.495 C 2299.898,304.495 2321.898,299.828 2323.898,299.828 C 2325.898,299.828 2355.232,298.495 2355.232,298.495 L 2356.565,308.495 C 2356.565,308.495 2406.566,313.828 2407.9,311.828 C 2409.234,309.828 2425.234,307.161 2425.234,304.495 C 2425.234,301.828 2429.234,287.828 2429.234,287.828 L 2443.9,279.828 L 2454.567,272.495 L 2474.567,269.162 L 2483.234,253.162 L 2499.9,244.495 L 2497.234,222.495 L 2488.567,217.162 L 2419.9,212.495 C 2419.9,212.495 2364.568,166.495 2359.234,166.495 C 2353.9,166.495 2329.9,155.828 2329.9,155.828 L 2391.234,83.161 L 2434.567,97.161 L 2459.234,57.161 L 2466.567,59.161 L 2493.9,15.828 L 2503.9,22.495 L 2523.234,5.828 L 2529.234,13.828 C 2529.234,13.828 2499.9,71.828 2500.567,73.828 C 2501.234,75.828 2507.9,94.495 2507.9,94.495 L 2586.567,50.495 L 2571.9,185.825 L 2615.233,229.825 L 2699.233,275.158 L 2717.9,281.158 L 2769.233,323.825 L 2811.9,303.825 L 2823.233,325.158 L 2836.567,325.825 L 2831.9,406.492 L 2813.233,495.159 L 2735.9,545.826 L 2736.567,611.826 L 2727.233,617.826 L 2695.233,711.826 L 2687.233,781.159 L 2703.233,776.492 L 2776.567,917.825 L 2875.233,903.825 L 2899.233,907.825 L 2934.567,915.825 L 2981.9,930.492 L 3041.233,946.492 L 3040.567,953.159 L 3079.233,973.159 L 3114.567,1001.159 L 3147.233,1026.492 L 3168.567,1052.492 L 3186.567,1079.159 L 3199.9,1107.826 L 3240.566,1091.826 L 3254.566,1101.826 L 3261.9,1122.493 L 3283.9,1121.16 L 3299.9,1161.16 L 3301.233,1186.493 L 3309.9,1207.16 L 3311.9,1227.827 L 3315.233,1247.827 L 3328.566,1269.16 L 3341.9,1289.16 L 3338.566,1312.493 L 3338.566,1333.826 L 3335.233,1356.493 L 3527.899,1402.493 L 3585.233,1409.16 L 3624.566,1410.493 L 3683.233,1419.16 L 3687.233,1431.827 L 3665.233,1468.494 L 3649.233,1466.494 C 3649.233,1466.494 3646.565,1472.494 3643.899,1472.494 C 3641.233,1472.494 3633.899,1469.161 3633.899,1469.161 C 3633.899,1469.161 3626.566,1472.494 3624.566,1472.494 C 3622.566,1472.494 3603.899,1470.494 3603.899,1470.494 L 3613.233,1510.494 L 3608.566,1516.494 L 3617.233,1555.827 L 3641.899,1553.16 L 3692.566,1546.493 L 3744.566,1554.493 L 3779.232,1552.493 L 3827.899,1546.493 L 3841.232,1589.16 L 3810.566,1618.493 L 3785.232,1639.16 L 3760.566,1659.826 L 3733.899,1685.826 L 3705.232,1719.826 L 3678.566,1765.16 L 3666.566,1800.492 L 3657.232,1833.16 L 3649.232,1875.826 L 3642.566,1913.16 L 3637.899,1944.492 L 3629.899,1956.492 L 3667.232,1968.492 L 3641.899,2012.492 L 3579.232,2109.826 L 3574.566,2167.16 L 3591.232,2176.492 C 3591.232,2176.492 3561.232,2221.826 3563.232,2221.826 C 3565.232,2221.826 3588.566,2229.16 3588.566,2229.16 L 3601.899,2214.492 L 3630.566,2223.826 L 3631.232,2245.16 L 3634.566,2245.826 L 3633.899,2266.492 L 3642.566,2267.16 L 3644.566,2262.492 L 3640.566,2241.826 L 3654.566,2239.16 L 3653.232,2187.16 L 3674.566,2186.492 C 3674.566,2186.492 3689.899,2169.826 3691.899,2168.492 C 3693.899,2167.16 3721.899,2155.826 3721.899,2155.826 L 3745.232,2141.16 C 3745.232,2141.16 3769.9,2115.16 3772.566,2115.16 C 3775.232,2115.16 3801.899,2118.492 3801.899,2118.492 L 3835.899,2134.492 L 3853.232,2135.826 L 3879.232,2153.826 L 3901.899,2166.492 C 3901.899,2166.492 3913.232,2167.16 3917.232,2167.16 C 3921.232,2167.16 3939.899,2160.492 3939.899,2160.492 L 3959.232,2172.492 L 3991.232,2195.16 L 4022.565,2211.826 L 4035.232,2233.16 C 4035.232,2233.16 4052.565,2244.492 4054.565,2245.16 C 4056.565,2245.826 4075.232,2250.492 4075.232,2250.492 L 4117.898,2255.16 L 4137.232,2258.492 C 4137.232,2258.492 4150.565,2291.826 4150.565,2293.826 C 4150.565,2295.826 4152.565,2317.826 4152.565,2317.826 L 4163.232,2335.826 L 4162.565,2350.492 L 4162.565,2360.492 L 4207.232,2362.492 L 4211.898,2344.492 L 4211.232,2323.826 L 4207.232,2305.826 L 4191.232,2302.492 L 4183.232,2255.16 L 4169.232,2233.826 L 4161.232,2213.826 L 4173.232,2214.492 L 4197.232,2235.826 L 4228.565,2255.826 C 4228.565,2255.826 4250.565,2268.492 4252.565,2268.492 C 4254.565,2268.492 4269.898,2268.492 4269.898,2268.492 L 4293.233,2297.826 L 4311.233,2333.826 C 4311.233,2333.826 4333.899,2356.492 4335.899,2356.492 C 4337.899,2356.492 4357.899,2379.16 4357.899,2379.16 C 4357.899,2379.16 4370.565,2394.492 4373.899,2395.16 C 4377.233,2395.826 4406.566,2396.492 4406.566,2396.492 L 4411.899,2391.826 L 4418.566,2393.16 L 4420.566,2399.16 C 4420.566,2399.16 4469.899,2409.16 4472.566,2409.16 C 4475.233,2409.16 4481.899,2403.16 4481.899,2403.16 C 4481.899,2403.16 4524.566,2417.826 4526.566,2417.826 C 4528.566,2417.826 4553.899,2431.826 4553.899,2431.826 L 4557.899,2439.826 L 4564.566,2435.826 L 4553.233,2467.16 L 4573.899,2470.492 L 4565.899,2517.826 L 4603.232,2522.492 L 4592.566,2541.826 L 4554.566,2541.16 L 4563.232,2484.492 L 4527.232,2491.16 L 4485.899,2528.492 L 4481.232,2583.826 L 4453.899,2585.826 L 4449.232,2587.826 L 4421.232,2587.826 L 4395.899,2578.492 L 4368.566,2561.826 L 4345.899,2545.826 L 4339.232,2539.826 L 4339.899,2553.16 L 4360.566,2569.826 L 4383.232,2582.492 L 4400.566,2587.16 L 4419.232,2591.16 L 4439.899,2592.492 L 4459.899,2597.16 L 4458.566,2632.492 L 4475.899,2640.492 L 4471.899,2656.492 L 4446.566,2660.492 L 4409.899,2731.826 L 4411.899,2745.16 L 4407.899,2757.826 L 4403.232,2776.492 L 4411.232,2791.826 L 4422.566,2807.16 L 4435.899,2825.16 L 4433.899,2833.16 L 4455.899,2844.492 L 4464.566,2857.826 L 4467.899,2875.16 L 4451.232,2887.826 L 4445.232,2913.826 L 4444.566,2930.492 L 4418.566,2957.826 L 4411.232,2955.826 L 4405.232,2957.16 L 4399.232,2957.16 L 4387.232,2963.826 L 4375.899,2975.16 L 4357.899,2978.492 L 4349.899,2973.826 L 4336.566,2974.492 L 4328.566,2966.492 L 4312.566,2977.16 L 4300.566,2989.826 L 4289.899,2996.492 L 4287.232,3005.826 L 4278.566,3013.16 L 4266.566,3021.16 L 4255.899,3027.16 L 4246.566,3037.16 L 4237.899,3037.826 L 4216.566,3071.826 L 4214.566,3060.492 L 4206.566,3059.16 L 4203.899,3078.492 L 4189.899,3095.16 L 4179.232,3111.16 L 4167.232,3123.826 L 4156.566,3135.16 L 4144.566,3135.16 L 4137.899,3138.492 L 4132.566,3152.492 L 4142.566,3163.16 L 4153.232,3159.826 L 4191.232,3181.826 L 4222.566,3176.492 L 4210.566,3217.826 L 4228.566,3218.492 L 4233.232,3221.826 L 4232.566,3233.16 L 4224.566,3250.492 L 4215.899,3271.826 L 4202.566,3297.826 L 4187.899,3316.492 L 4191.899,3328.492 C 4191.899,3328.492 4179.899,3330.492 4181.899,3331.16 C 4183.899,3331.826 4185.899,3337.16 4185.899,3337.16 L 4175.232,3333.16 L 4165.232,3337.16 L 4155.232,3337.826 L 4132.566,3323.16 L 4117.232,3316.492 L 4095.232,3324.492 L 4065.899,3344.492 L 4045.899,3349.826 L 4037.899,3369.826 L 4034.566,3376.492 L 4026.566,3381.16 L 4017.899,3399.826 L 4014.566,3438.492 L 4015.899,3455.16 C 4015.899,3455.16 4000.566,3457.16 4000.566,3459.16 C 4000.566,3461.16 3996.566,3472.492 3996.566,3472.492 L 3993.232,3488.492 L 3987.232,3501.826 L 3971.899,3509.16 L 3971.232,3522.492 L 3957.899,3528.492 L 3957.232,3547.826 L 3953.232,3563.826 L 3954.566,3577.16 L 3946.566,3586.492 L 3939.232,3597.826 L 3927.899,3619.16 L 3927.232,3636.492 C 3927.232,3636.492 3928.566,3659.16 3928.566,3661.826 C 3928.566,3664.492 3920.566,3674.492 3920.566,3674.492 L 3905.899,3678.492 L 3889.899,3675.16 L 3877.232,3666.492 L 3869.232,3665.826 C 3869.232,3665.826 3849.9,3641.158 3846.566,3640.492 C 3843.232,3639.826 3821.232,3601.826 3821.232,3601.826 L 3817.232,3565.826 L 3816.566,3501.16 C 3816.566,3501.16 3817.899,3463.16 3817.899,3461.16 C 3817.899,3459.16 3830.566,3434.492 3830.566,3434.492 L 3861.232,3397.16 C 3861.232,3397.16 3878.565,3377.826 3879.232,3374.492 C 3879.899,3371.16 3879.232,3353.826 3879.232,3353.826 L 3871.232,3328.492 L 3840.566,3322.492 L 3845.232,3293.16 L 3836.566,3244.492 L 3775.232,3262.492 L 3736.566,3208.492 L 3592.566,3302.492 L 3595.899,3278.492 L 3592.566,3265.826 L 3588.566,3258.492 L 3585.232,3255.16 L 3591.899,3243.826 L 3585.899,3224.492 L 3571.232,3214.492 C 3571.232,3214.492 3565.899,3200.494 3563.899,3199.826 C 3561.899,3199.16 3551.899,3192.492 3551.899,3192.492 L 3539.899,3177.16 L 3519.232,3173.16 L 3509.232,3155.826 L 3509.899,3147.16 L 3507.899,3137.826 L 3500.566,3135.16 L 3496.566,3125.16 L 3500.566,3112.492 L 3501.232,3102.492 L 3496.566,3093.16 L 3488.566,3085.826 L 3435.9,3113.16 L 3403.234,3122.492 C 3403.234,3122.492 3375.234,3133.16 3372.567,3133.16 C 3369.9,3133.16 3352.567,3139.16 3352.567,3139.16 C 3352.567,3139.16 3330.567,3151.826 3328.567,3151.826 C 3326.567,3151.826 3297.234,3161.826 3297.234,3161.826 L 3265.234,3161.826 C 3265.234,3161.826 3233.9,3161.16 3230.567,3161.16 C 3227.234,3161.16 3201.234,3162.492 3201.234,3162.492 L 3173.234,3163.826 C 3173.234,3163.826 3151.9,3163.826 3149.9,3163.826 C 3147.9,3163.826 3098.567,3165.16 3098.567,3165.16 L 3096.567,3144.492 L 3096.567,3120.492 L 3098.567,3100.492 L 3105.234,3069.826 L 3109.234,3047.826 L 3113.9,3036.492 C 3113.9,3036.492 3090.566,3051.826 3087.9,3051.826 C 3085.234,3051.826 3059.9,3070.492 3059.9,3070.492 C 3059.9,3070.492 3019.234,3055.16 3015.234,3053.16 C 3011.234,3051.16 2979.901,3035.16 2979.901,3035.16 C 2979.901,3035.16 2965.901,3030.492 2963.234,3030.492 C 2960.567,3030.492 2945.9,3039.16 2942.567,3039.826 C 2939.234,3040.492 2902.567,3051.826 2902.567,3051.826 L 2861.901,3061.16 L 2819.234,3071.826 L 2762.567,3093.16 L 2718.567,3107.826 L 2705.234,3045.16 L 2684.567,2997.826 C 2684.567,2997.826 2627.234,2848.494 2620.568,2847.826 C 2613.902,2847.16 2597.901,2838.492 2592.568,2838.492 C 2587.235,2838.492 2559.235,2845.826 2559.235,2845.826 C 2559.235,2845.826 2475.234,2894.492 2472.568,2895.16 C 2469.902,2895.826 2423.235,2920.492 2423.235,2920.492 C 2423.235,2920.492 2380.568,2947.826 2375.235,2947.16 C 2369.902,2946.492 2293.235,2976.492 2293.235,2976.492 L 2291.902,3007.16 L 2367.902,3237.826 L 2362.568,3263.16 L 2327.235,3355.826 C 2327.235,3355.826 2233.235,3351.826 2225.235,3353.16 C 2217.235,3354.492 2108.568,3349.826 2108.568,3349.826 L 2093.901,3231.826 L 1979.235,3235.826 C 1979.235,3235.826 1985.901,3179.158 1983.901,3178.492 C 1981.901,3177.826 1914.568,3142.492 1914.568,3142.492 L 1845.565,3094.159 z "
   style="fill:none;stroke:#39f200;stroke-width:8;stroke-linecap:round;stroke-opacity:1" />
</g></svg>